<svg width="96" height="104" viewBox="0 0 96 104" fill="none" xmlns="http://www.w3.org/2000/svg">
<g filter="url(#filter0_d_1_48)">
<path fill-rule="evenodd" clip-rule="evenodd" d="M47.9596 16.9999C62.582 16.9999 74.4359 28.8644 74.4359 43.4999C74.4359 58.1353 62.582 69.9999 47.9596 69.9999C33.3372 69.9999 21.4834 58.1353 21.4834 43.4999C21.4834 28.8644 33.3372 16.9999 47.9596 16.9999Z" fill="#FF4361"/>
</g>
<path fill-rule="evenodd" clip-rule="evenodd" d="M42.4652 0.999936H52.4564C69.0101 0.999936 82.4295 14.4311 82.4295 30.9999V40.9999C82.4295 57.5682 69.0101 70.9998 52.4564 70.9998H42.4652C25.9116 70.9998 12.4922 57.5682 12.4922 40.9999V30.9999C12.4922 14.4311 25.9116 0.999936 42.4652 0.999936Z" fill="#FF4361"/>
<path fill-rule="evenodd" clip-rule="evenodd" d="M42.4652 0.999936H52.4564C69.0101 0.999936 82.4295 14.4311 82.4295 30.9999V40.9999C82.4295 57.5682 69.0101 70.9998 52.4564 70.9998H42.4652C25.9116 70.9998 12.4922 57.5682 12.4922 40.9999V30.9999C12.4922 14.4311 25.9116 0.999936 42.4652 0.999936Z" fill="url(#paint0_linear_1_48)"/>
<path fill-rule="evenodd" clip-rule="evenodd" d="M64.9886 31.8587C64.9943 31.9609 64.9869 32.0647 64.9614 32.169L62.6811 41.3351C62.5661 41.7964 62.1542 42.1216 61.6809 42.1243L47.9996 42.1937C47.9979 42.1937 47.9962 42.1937 47.9944 42.1937H34.3131C33.8371 42.1937 33.4224 41.8673 33.3075 41.4034L31.0273 32.2023C31.0009 32.0958 30.9934 31.9888 31.0001 31.884C30.1179 31.605 29.4764 30.7754 29.4764 29.798C29.4764 28.591 30.4527 27.6098 31.6529 27.6098C32.8531 27.6098 33.8294 28.591 33.8294 29.798C33.8294 30.477 33.5197 31.0846 33.0348 31.4867L35.8896 34.377C36.6112 35.1076 37.6123 35.527 38.6366 35.527C39.8477 35.527 41.0025 34.9485 41.7297 33.9802L46.4214 27.7324C46.0273 27.3367 45.7832 26.7899 45.7832 26.1867C45.7832 24.9802 46.7595 23.9985 47.9597 23.9985C49.1599 23.9985 50.1363 24.9802 50.1363 26.1867C50.1363 26.7717 49.9052 27.3023 49.5317 27.6953C49.5329 27.6969 49.5345 27.6985 49.5357 27.7001L54.1933 33.9652C54.9203 34.9426 56.0791 35.527 57.2937 35.527C58.3274 35.527 59.2996 35.1222 60.0304 34.3878L62.9032 31.5001C62.4081 31.0985 62.09 30.4856 62.09 29.798C62.09 28.591 63.0664 27.6098 64.2666 27.6098C65.4668 27.6098 66.4432 28.591 66.4432 29.798C66.4432 30.7491 65.8343 31.5587 64.9886 31.8587ZM62.4586 45.4571C62.4586 44.8824 61.9945 44.4157 61.4221 44.4157H34.6126C34.0402 44.4157 33.5761 44.8824 33.5761 45.4571V47.9571C33.5761 48.5329 34.0402 48.999 34.6126 48.999H61.4221C61.9945 48.999 62.4586 48.5329 62.4586 47.9571V45.4571Z" fill="white"/>
<defs>
<filter id="filter0_d_1_48" x="0.483429" y="9" width="94.9525" height="95" filterUnits="userSpaceOnUse" color-interpolation-filters="sRGB">
<feFlood flood-opacity="0" result="BackgroundImageFix"/>
<feColorMatrix in="SourceAlpha" type="matrix" values="0 0 0 0 0 0 0 0 0 0 0 0 0 0 0 0 0 0 127 0" result="hardAlpha"/>
<feOffset dy="13"/>
<feGaussianBlur stdDeviation="10.5"/>
<feColorMatrix type="matrix" values="0 0 0 0 0.992157 0 0 0 0 0.345098 0 0 0 0 0.447059 0 0 0 0.3 0"/>
<feBlend mode="normal" in2="BackgroundImageFix" result="effect1_dropShadow_1_48"/>
<feBlend mode="normal" in="SourceGraphic" in2="effect1_dropShadow_1_48" result="shape"/>
</filter>
<linearGradient id="paint0_linear_1_48" x1="52.8693" y1="113.413" x2="124.878" y2="30.6507" gradientUnits="userSpaceOnUse">
<stop stop-color="#FF5858"/>
<stop offset="1" stop-color="#F857A6"/>
</linearGradient>
</defs>
</svg>
