<svg width="140" height="25" viewBox="0 0 140 25" fill="none" xmlns="http://www.w3.org/2000/svg">
<path fill-rule="evenodd" clip-rule="evenodd" d="M28.4108 6.53728C28.4312 6.45385 28.4372 6.37084 28.4326 6.28911C29.1097 6.04913 29.5972 5.40145 29.5972 4.64065C29.5972 3.67515 28.8154 2.89025 27.8545 2.89025C26.8936 2.89025 26.1118 3.67515 26.1118 4.64065C26.1118 5.19072 26.3665 5.681 26.7629 6.00225L24.4628 8.31218C23.8776 8.89966 23.0993 9.2235 22.2716 9.2235C21.2991 9.2235 20.3713 8.75602 19.7893 7.97415L16.0601 2.96251L16.0569 2.95863C16.356 2.64425 16.541 2.21978 16.541 1.75186C16.541 0.786768 15.7593 0.00146484 14.7983 0.00146484C13.8374 0.00146484 13.0557 0.786768 13.0557 1.75186C13.0557 2.23439 13.2511 2.67178 13.5667 2.98831L9.81018 7.98617C9.22795 8.76075 8.30341 9.2235 7.33366 9.2235C6.5136 9.2235 5.71203 8.88804 5.13428 8.30358L2.84857 5.9915C3.23683 5.66982 3.48481 5.18382 3.48481 4.64065C3.48481 3.67515 2.70311 2.89025 1.74216 2.89025C0.781211 2.89025 -0.000488281 3.67515 -0.000488281 4.64065C-0.000488281 5.42252 0.513168 6.08614 1.21945 6.30933C1.21414 6.39319 1.22015 6.47878 1.24124 6.56393L3.06692 13.9242C3.15892 14.2953 3.49095 14.5564 3.87208 14.5564H14.826H14.8303L25.7842 14.5009C26.1632 14.4988 26.493 14.2386 26.5851 13.8696L28.4108 6.53728ZM25.5771 16.3339C26.0354 16.3339 26.4069 16.7072 26.4069 17.1669V19.1668C26.4069 19.6274 26.0354 20.0003 25.5771 20.0003H4.11183C3.65353 20.0003 3.28195 19.6274 3.28195 19.1668V17.1669C3.28195 16.7072 3.65353 16.3339 4.11183 16.3339H25.5771ZM50.1599 16.38H45.5999V4.86H42.1799V19H50.1599V16.38ZM58.1707 8.28C57.5573 7.89333 56.824 7.7 55.9707 7.7C55.0507 7.7 54.224 7.93333 53.4907 8.4C52.7707 8.85333 52.1973 9.51333 51.7707 10.38C51.3573 11.2333 51.1507 12.2467 51.1507 13.42C51.1507 14.58 51.3573 15.5933 51.7707 16.46C52.1973 17.3267 52.7707 17.9933 53.4907 18.46C54.224 18.9133 55.0507 19.14 55.9707 19.14C56.824 19.14 57.5573 18.9467 58.1707 18.56C58.784 18.1733 59.2373 17.6467 59.5307 16.98V19H62.9307V7.84H59.5307V9.86C59.2373 9.19333 58.784 8.66667 58.1707 8.28ZM55.2907 11.42C55.744 10.94 56.3373 10.7 57.0707 10.7C57.7907 10.7 58.3773 10.9467 58.8307 11.44C59.2973 11.92 59.5307 12.58 59.5307 13.42C59.5307 14.2467 59.2973 14.9067 58.8307 15.4C58.3773 15.8933 57.7907 16.14 57.0707 16.14C56.3373 16.14 55.744 15.9 55.2907 15.42C54.8507 14.94 54.6307 14.2733 54.6307 13.42C54.6307 12.5667 54.8507 11.9 55.2907 11.42ZM75.4053 9C74.6587 8.14667 73.6453 7.72 72.3653 7.72C71.512 7.72 70.7654 7.91333 70.1254 8.3C69.4987 8.68667 69.0253 9.21333 68.7053 9.88V7.84H65.2853V19H68.7053V13.08C68.7053 12.2667 68.9053 11.64 69.3053 11.2C69.7187 10.76 70.272 10.54 70.9653 10.54C71.6187 10.54 72.1387 10.7533 72.5253 11.18C72.9253 11.5933 73.1254 12.1733 73.1254 12.92V19H76.5453V12.52C76.5453 11.0267 76.1653 9.85333 75.4053 9ZM85.241 8.28C84.6276 7.89333 83.8943 7.7 83.041 7.7C82.121 7.7 81.2943 7.93333 80.561 8.4C79.841 8.85333 79.2676 9.51333 78.841 10.38C78.4276 11.2333 78.221 12.2467 78.221 13.42C78.221 14.58 78.4276 15.5933 78.841 16.46C79.2676 17.3267 79.841 17.9933 80.561 18.46C81.2943 18.9133 82.121 19.14 83.041 19.14C83.8943 19.14 84.6276 18.9467 85.241 18.56C85.8543 18.1733 86.301 17.6467 86.581 16.98V19H90.001V4.2H86.581V9.86C86.301 9.19333 85.8543 8.66667 85.241 8.28ZM82.361 11.42C82.8143 10.94 83.4076 10.7 84.141 10.7C84.861 10.7 85.4476 10.9467 85.901 11.44C86.3676 11.92 86.601 12.58 86.601 13.42C86.601 14.2467 86.3676 14.9067 85.901 15.4C85.4476 15.8933 84.861 16.14 84.141 16.14C83.4076 16.14 82.8143 15.9 82.361 15.42C81.921 14.94 81.701 14.2733 81.701 13.42C81.701 12.5667 81.921 11.9 82.361 11.42ZM98.7957 8.28C98.1823 7.89333 97.449 7.7 96.5957 7.7C95.6757 7.7 94.849 7.93333 94.1157 8.4C93.3957 8.85333 92.8223 9.51333 92.3957 10.38C91.9823 11.2333 91.7757 12.2467 91.7757 13.42C91.7757 14.58 91.9823 15.5933 92.3957 16.46C92.8223 17.3267 93.3957 17.9933 94.1157 18.46C94.849 18.9133 95.6757 19.14 96.5957 19.14C97.449 19.14 98.1823 18.9467 98.7957 18.56C99.409 18.1733 99.8623 17.6467 100.156 16.98V18.94C100.156 19.8333 99.9357 20.48 99.4957 20.88C99.069 21.2933 98.5023 21.5 97.7957 21.5C97.1823 21.5 96.6823 21.3733 96.2957 21.12C95.9223 20.8667 95.6823 20.5133 95.5757 20.06H92.1957C92.3957 21.42 92.9957 22.4933 93.9957 23.28C95.009 24.08 96.3557 24.48 98.0357 24.48C99.2623 24.48 100.289 24.2333 101.116 23.74C101.942 23.2467 102.556 22.58 102.956 21.74C103.356 20.9133 103.556 19.98 103.556 18.94V7.84H100.156V9.86C99.8623 9.19333 99.409 8.66667 98.7957 8.28ZM95.9157 11.42C96.369 10.94 96.9623 10.7 97.6957 10.7C98.4157 10.7 99.0023 10.9467 99.4557 11.44C99.9223 11.92 100.156 12.58 100.156 13.42C100.156 14.2467 99.9223 14.9067 99.4557 15.4C99.0023 15.8933 98.4157 16.14 97.6957 16.14C96.9623 16.14 96.369 15.9 95.9157 15.42C95.4757 14.94 95.2557 14.2733 95.2557 13.42C95.2557 12.5667 95.4757 11.9 95.9157 11.42ZM113.57 19H117.01V7.84H113.57V13.76C113.57 14.5733 113.37 15.2 112.97 15.64C112.57 16.08 112.024 16.3 111.33 16.3C110.664 16.3 110.13 16.0933 109.73 15.68C109.344 15.2533 109.15 14.66 109.15 13.9V7.84H105.75V14.32C105.75 15.8133 106.124 16.9867 106.87 17.84C107.63 18.6933 108.65 19.12 109.93 19.12C110.77 19.12 111.504 18.9267 112.13 18.54C112.77 18.1533 113.25 17.6333 113.57 16.98V19ZM124.427 8.32C123.761 8.72 123.214 9.26 122.787 9.94V7.84H119.367V19H122.787V13.92C122.787 13 123.034 12.3467 123.527 11.96C124.034 11.5733 124.741 11.38 125.647 11.38H126.627V7.72C125.841 7.72 125.107 7.92 124.427 8.32ZM135.719 19H139.159V7.84H135.719V13.76C135.719 14.5733 135.519 15.2 135.119 15.64C134.719 16.08 134.172 16.3 133.479 16.3C132.812 16.3 132.279 16.0933 131.879 15.68C131.492 15.2533 131.299 14.66 131.299 13.9V7.84H127.899V14.32C127.899 15.8133 128.272 16.9867 129.019 17.84C129.779 18.6933 130.799 19.12 132.079 19.12C132.919 19.12 133.652 18.9267 134.279 18.54C134.919 18.1533 135.399 17.6333 135.719 16.98V19Z" fill="#02073E"/>
</svg>
